<svg id="Layer_1" data-name="Layer 1" xmlns="http://www.w3.org/2000/svg" viewBox="0 0 293.63 468.64"><defs><style>.cls-1{fill:#fff;}</style></defs><title>final_logo_white</title><path class="cls-1" d="M577.81,316c2.65,3.61,1.66,7.58-3.1,9.91-4.14,2-8.36,1.3-12.42.27a14,14,0,0,0-8.57.38c-5.84,2.16-11.91,3.05-18,3.75-6.43.73-12.88,1.42-19.3,2.26a14.92,14.92,0,0,0-9.85,4.79c-2,2.32-1.64,4.62,1.09,6.1,6.57,3.58,13.69,5.48,20.93,7,4.53.94,8,3.51,11.22,6.67,2.19,2.19,4.18,4.61,7.41,5.45,4.09,1.06,8.13,2.34,12.22,3.4,2.37.62,4.84.92,7.23,1.52A2.23,2.23,0,0,1,568,369a21.76,21.76,0,0,1-1.25,10.66c-.84,2.05-2,4-3,5.95a9.24,9.24,0,0,0-1,2.38c-.91,5.14-1.87,10.27-2.54,15.44-.63,4.8-1,9.64-1.26,14.49-.1,2.2.55,4.43.75,6.67a38.67,38.67,0,0,1-2,16.7c-.53,1.5-.73,3.15-1.33,4.63-1.39,3.38-2.94,6.69-4.38,10.05-2.65,6.09-5.37,12.16-7.82,18.32-.75,1.92-.63,4.14-1.15,6.16a6.58,6.58,0,0,1-1.59,2.19c-.6-.56-1.47-1-1.76-1.74-1-2.45-1.86-5-2.77-7.48l-.77-.33c-1.59,2-3.25,4-4.76,6-1,1.36-1.59,3-2.7,4.21-3.42,3.75-7.17,7.22-10.51,11a19.79,19.79,0,0,1-7.22,5.11,6.9,6.9,0,0,0-1.91,1.48c-3.22,3.07-6.42,6.15-9.58,9.3a8.91,8.91,0,0,0-1.9,2.5c-2.14,4.76-4.18,9.55-6.25,14.32-.27.63-.54,1.27-.85,1.87a17.87,17.87,0,0,0-2,7.88,112.42,112.42,0,0,1-.69,13.23,84.12,84.12,0,0,1-2.7,11.17,39.56,39.56,0,0,0-1.23,13.31c0,.24.2.52.13.72-.25.81-.6,1.58-.89,2.36-.73-.51-1.78-.89-2.14-1.59a24.4,24.4,0,0,1-1.26-4.11c-1.47-4.92-2.77-9.92-4.52-14.74-.72-2-2.43-3.7-3.63-5.56-2.25-3.51-4.43-7-6.72-10.53-1-1.43-2.34-2.61-3.18-4.1a50.86,50.86,0,0,1-4.07-8.28c-.5-1.39.25-3.17.27-4.78.07-8.35-.09-16.68.21-25a15.17,15.17,0,0,1,3.37-9.14,13.15,13.15,0,0,0,2.9-7.15c.36-3.4.86-6.79,1.2-10.21a27.79,27.79,0,0,0-4.63-18.72c-2.55-3.78-3.73-8.06-4.83-12.44a14.14,14.14,0,0,0-2.94-5.13,14.45,14.45,0,0,1-3.46-10c.12-5.17.28-10.35,0-15.52-.12-2.53-1.23-5-1.78-7.51-.68-3.06-1.66-6.14.16-9.2,1.6-2.74,3-5.58,4.7-8.27.77-1.25,2.36-2.07,2.86-3.35,2-5.1,6.12-8.42,9.73-12.15a10.48,10.48,0,0,0-.1-14.82l-.05-.05c-1.9-1.86-3.63-3.9-5.51-5.76a8.37,8.37,0,0,0-1.92-1.06c-2-1.13-6.17-10.61-6.69-12.58-1.84-7.13-1-10.69-.35-18,.13-1.56,3.18-1,4.27-2.07,3.63-3.56,5.63-6.73,6.69-11.4,1.52-6.6,2.83-13.28,4.06-19.93,1-5.49,2.53-11,1.18-16.63a25.59,25.59,0,0,0-3.2-7.6c-2.74-4.29-6.06-8.19-8.83-12.47-1.35-2.1-1.85-4.74-3-7a53.36,53.36,0,0,1-4.71-16.21,11.34,11.34,0,0,1,.74-6.33,30,30,0,0,1,5.3-7.06c2.9-3,6.22-5.55,9.09-8.52,1.27-1.3,1.88-3.19,2.81-4.81,1.14-2.06,2.24-4.14,3.5-6.13a4.27,4.27,0,0,1,2-1.28c.94-.39,1.66,0,1.59,1.08-.12,1.91-.34,3.83-.53,5.75a1.26,1.26,0,0,1-.24.7c-3.17,3.13-2.79,7.82-5,11.38a23.74,23.74,0,0,0-1.87,4.26,23.23,23.23,0,0,0-.62,13.51,5,5,0,0,0,3.48,3.82c1.83.65,3.66,1.21,5.47,1.86,2.86,1,5.7,2.11,8.54,3.15a8.2,8.2,0,0,0,2.31.74c3.29.08,4.77,2.15,5.83,4.89A50.91,50.91,0,0,0,492,246.7c2.23,4.31,6.27,6.18,10.53,7.8,5.32,2,10.9,2.84,16.46,3.84a109.72,109.72,0,0,1,11,2.73,12.91,12.91,0,0,1,3.2,1.89c1.1.71,2.16,1.48,3.23,2.22,1.75,1.18,3.55,2.28,5.22,3.52a24.68,24.68,0,0,1,7.63,9.23c1.87,3.9,3.49,7.92,5.29,11.85,1.45,3.15,3.32,5.92,6.52,7.67,4.11,2.26,6.79,5.93,9.22,9.82a27.9,27.9,0,0,0,2.72,3.51C574.64,312.64,576.46,314.13,577.81,316Zm-3.94,7.89c1.71-.3,3.22-2.79,2.6-4.15a26.3,26.3,0,0,0-3-4.85c-2-2.57-4.09-5-6.09-7.5-2.16-2.72-4.06-5.59-7.12-7.54s-6-3.72-6.4-7.74a1.63,1.63,0,0,0-.21-.53c-1.65-3.33-3.21-6.72-5-10-1.9-3.48-3.37-7.27-6.7-9.74-2.74-2-5.67-3.78-8.3-5.92-4.83-3.9-10.56-5.27-16.46-5.95a59.6,59.6,0,0,1-19.49-5.41c-5.39-2.67-8.13-7.06-10.11-12.28a5.81,5.81,0,0,0-3.7-3.66c-6.16-2.13-12.32-4.32-18.51-6.35a4.09,4.09,0,0,1-3-3.22,27.13,27.13,0,0,1-.46-12.38,43.16,43.16,0,0,1,2.94-8.78c1.75-3.61,2.33-7.65,4.47-11.09a4.92,4.92,0,0,0,.26-1.9l-.65-.19a33.28,33.28,0,0,0-1.68,3.25c-1.1,2.86-2.34,5.6-4.86,7.57a49.89,49.89,0,0,0-4.11,3.44c-1.91,1.84-3.83,3.71-5.56,5.73-2.36,2.79-4.27,5.76-3.43,9.82A70.6,70.6,0,0,0,454,239.85c2.41,5.28,4.92,10.43,8.5,15,1.93,2.48,3.81,5,5.65,7.59a5.35,5.35,0,0,1,1,2.35c.42,4.31,1,8.59,0,13-1.18,5.43-1.78,11-2.74,16.5-.44,2.61-1.12,5.2-1.79,7.76-1.23,4.69-1.76,9.67-5.15,13.54-2.86,3.25-6.81,2.08-7.24,6.52-1,4.05.5,9.11.7,13,.24,4.18,4.72,11.18,8.54,13.44a7.88,7.88,0,0,1,1.37,1,50.37,50.37,0,0,1,5.59,5.63c1.58,2.1,2.06,4.7,2.36,7.44.52,4.54-1.91,7.21-4.65,10.13s-5.32,6.35-7.87,9.6c-1.18,1.5-2.19,3.15-3.27,4.72-.56.82-1.2,1.59-1.69,2.43-.87,1.51-1.52,3.17-2.5,4.59a7.11,7.11,0,0,0-.75,7.68c1.73,3.78,2.05,7.89,2.1,12,0,3.8-.15,7.6-.27,11.38s.58,7,3.35,9.77a8.57,8.57,0,0,1,2.36,3.88,40.71,40.71,0,0,0,5,12.61c2.76,4.31,5.31,8.64,5.53,13.91a59.72,59.72,0,0,1,0,6.69c-.2,3.46-.58,6.91-.9,10.37a14.11,14.11,0,0,1-2.81,7.72c-1.78,2.27-3.61,4.6-3.73,7.76-.09,2.54-.43,5.05-.55,7.58-.2,3.77-.39,7.53-.43,11.31,0,3,.18,6,.33,9.07.12,2.55.26,5.12,2,7.22,1.09,1.27,2.19,2.55,3.18,3.88,1.14,1.54,2.22,3.14,3.27,4.76,1.72,2.7,3.16,5.68,5.2,8.15a24.5,24.5,0,0,1,4.92,9.08c.79,2.76,1.53,5.53,2.28,8.3a2.47,2.47,0,0,0,.86-1.35c.51-2.09,1-4.19,1.5-6.28.77-3.32,1.88-6.61,2.21-10,.48-5.06.39-10.2.6-15.3a6.45,6.45,0,0,1,.36-2.54c1.06-2.38,2.25-4.71,3.44-7,2.66-5.17,5.33-10.33,8.07-15.47a12.76,12.76,0,0,1,2.33-3.13c2.24-2.2,4.55-4.39,7-6.43,2-1.68,4.12-3.17,6.21-4.71a20,20,0,0,0,2.72-1.93q4.5-4.67,8.85-9.48c1.62-1.78,3.23-3.61,4.69-5.54,1.79-2.36,3.32-4.93,5.16-7.24s3.08-1.95,4.21.82c.52,1.29,1.1,2.53,1.64,3.8,1.27-2.27,2.45-4.38,3.61-6.47a5.72,5.72,0,0,0,.28-.68c1.18-3.15,2.24-6.33,3.54-9.39,1.54-3.61,3.44-7.07,4.91-10.7,2.74-6.72,4.77-13.62,4.5-21-.21-5.54-.46-11.07-.34-16.61a66.24,66.24,0,0,1,1.23-12.4c.48-2.28.7-4.57,1.18-6.83a36.1,36.1,0,0,1,2.43-7.79c1.78-3.73,3.78-7.25,3.56-11.61-.07-1.37-.36-2.09-1.64-2.47-5.07-1.45-10.1-3.2-15.23-4.34a17,17,0,0,1-9-4.84,51.12,51.12,0,0,0-3.92-3.73c-3.66-3.2-8.19-4.37-12.78-5.24A54.4,54.4,0,0,1,506,345.48c-2.53-1.44-4.1-4.89-2.75-7.5a12.41,12.41,0,0,1,8.76-6.6c6.72-1.23,13.53-1.95,20.34-2.6a101.26,101.26,0,0,0,20.82-4.11,26.13,26.13,0,0,1,7.31-.92c1.76,0,3.52.91,5.3.91A48.16,48.16,0,0,0,573.87,323.85Z" transform="translate(-285.62 -108.86)"/><path class="cls-1" d="M576.47,319.74c.62,1.36-.89,3.85-2.6,4.15a49,49,0,0,1-8.11.7c-1.78,0-3.54-.93-5.3-.91a26.13,26.13,0,0,0-7.31.92,101.26,101.26,0,0,1-20.82,4.11c-6.81.65-13.62,1.37-20.34,2.6a12.41,12.41,0,0,0-8.76,6.6c-1.35,2.61.22,6.06,2.75,7.5a54.4,54.4,0,0,0,17.11,5.85c4.59.87,9.12,2,12.78,5.24a51.12,51.12,0,0,1,3.92,3.73,17,17,0,0,0,9,4.84c5.13,1.14,10.16,2.89,15.23,4.34,1.28.38,1.57,1.1,1.64,2.47.22,4.36-1.78,7.88-3.56,11.61a36.1,36.1,0,0,0-2.43,7.79c-.48,2.26-.7,4.55-1.18,6.83a66.24,66.24,0,0,0-1.23,12.4c-.12,5.54.13,11.07.34,16.61.27,7.39-1.76,14.29-4.5,21-1.47,3.63-3.37,7.09-4.91,10.7-1.3,3.06-2.36,6.24-3.54,9.39a5.72,5.72,0,0,1-.28.68c-1.16,2.09-2.34,4.2-3.61,6.47-.54-1.27-1.12-2.51-1.64-3.8-1.13-2.77-2.38-3.11-4.21-.82s-3.37,4.88-5.16,7.24c-1.46,1.93-3.07,3.76-4.69,5.54-2.91,3.2-5.84,6.37-8.85,9.48a20,20,0,0,1-2.72,1.93c-2.09,1.54-4.24,3-6.21,4.71-2.41,2-4.72,4.23-7,6.43A12.76,12.76,0,0,0,498,509.2c-2.74,5.14-5.41,10.3-8.07,15.47-1.19,2.31-2.38,4.64-3.44,7a6.45,6.45,0,0,0-.36,2.54c-.21,5.1-.12,10.24-.6,15.3-.33,3.35-1.44,6.64-2.21,10-.49,2.09-1,4.19-1.5,6.28a2.47,2.47,0,0,1-.86,1.35c-.75-2.77-1.49-5.54-2.28-8.3a24.36,24.36,0,0,0-4.92-9.08c-2-2.47-3.48-5.45-5.2-8.15-1.05-1.62-2.13-3.22-3.27-4.76-1-1.33-2.09-2.61-3.18-3.88-1.78-2.1-1.92-4.67-2-7.22-.15-3-.34-6.06-.33-9.07,0-3.78.23-7.54.43-11.31.12-2.53.46-5,.55-7.58.12-3.16,2-5.49,3.73-7.76a14.11,14.11,0,0,0,2.81-7.72c.32-3.46.7-6.91.9-10.37.12-2.22.07-4.46,0-6.69-.22-5.27-2.77-9.6-5.53-13.91a40.71,40.71,0,0,1-5-12.61,8.57,8.57,0,0,0-2.36-3.88c-2.77-2.76-3.45-6.09-3.35-9.77s.31-7.58.27-11.38c-.05-4.1-.37-8.21-2.1-12a7.11,7.11,0,0,1,.75-7.68c1-1.42,1.63-3.08,2.5-4.59.49-.84,1.13-1.61,1.69-2.43,1.08-1.57,2.09-3.22,3.27-4.72,2.55-3.25,5-6.59,7.87-9.6s5.17-5.59,4.65-10.13c-.3-2.74-.78-5.34-2.36-7.44a50.37,50.37,0,0,0-5.59-5.63,7.88,7.88,0,0,0-1.37-1c-3.82-2.26-8.3-9.26-8.54-13.44-.2-3.85-1.71-8.91-.7-13,.43-4.44,4.38-3.27,7.24-6.52,3.39-3.87,3.92-8.85,5.15-13.54.67-2.56,1.35-5.15,1.79-7.76,1-5.5,1.56-11.07,2.74-16.5.94-4.39.4-8.67,0-13a5.35,5.35,0,0,0-1-2.35c-1.84-2.56-3.72-5.11-5.65-7.59-3.58-4.61-6.09-9.76-8.5-15a70.46,70.46,0,0,1-4.67-15.28c-.84-4.06,1.07-7,3.43-9.82,1.73-2,3.65-3.89,5.56-5.73a49.89,49.89,0,0,1,4.11-3.44c2.52-2,3.76-4.71,4.86-7.57a33.28,33.28,0,0,1,1.68-3.25l.65.19a4.92,4.92,0,0,1-.26,1.9c-2.14,3.44-2.72,7.48-4.47,11.09a43.16,43.16,0,0,0-2.94,8.78,27.13,27.13,0,0,0,.46,12.38,4.09,4.09,0,0,0,3,3.22c6.19,2,12.35,4.22,18.51,6.35a5.81,5.81,0,0,1,3.7,3.66c2,5.22,4.72,9.61,10.11,12.28A59.51,59.51,0,0,0,517.21,260c5.9.68,11.63,2,16.46,5.95,2.63,2.14,5.56,3.92,8.3,5.92,3.33,2.47,4.8,6.26,6.7,9.74,1.8,3.25,3.36,6.64,5,10a1.63,1.63,0,0,1,.21.53c.38,4,3.49,5.91,6.4,7.74s5,4.82,7.12,7.54c2,2.52,4.14,4.93,6.09,7.5A25.45,25.45,0,0,1,576.47,319.74Zm-52.79,125.9a34.5,34.5,0,0,0,.94-12.39c-.21-3.22-.59-6.44-.83-9.67-.11-1.49,0-3-.17-4.46-.3-2.4-.92-4.76-1.14-7.17-.5-5-2.93-9.33-4.81-13.81a14.24,14.24,0,0,0-3.64-4.62c-4.74-4.28-9.64-8.38-14.41-12.63a18.39,18.39,0,0,1-3-3.47c-1.4-2-1.66-2.12-4-.6.3.5.83,1,.86,1.52.15,2.71.56,5.5.15,8.13-.48,3.1-2.22,6-2.48,9.12-.36,4.29.21,8.67.31,13,0,2.3,0,4.59-.12,6.88-.12,3.49-.44,7.14,1.51,10.15a62.09,62.09,0,0,0,6.67,7.9,45.12,45.12,0,0,0,4.74,4.21,16.64,16.64,0,0,1,5.59,7.56c1.37,4.06,2.43,8.22,3.58,12.32.27,1,.74,2.14,1.78,1.47,2-1.28,4.46-2.2,5.41-4.68C521.69,451.5,522.77,448.59,523.68,445.64ZM509.49,294.37c-.37-1.78-.77-3.47-1.08-5.18a5.82,5.82,0,0,0-3.47-4.33c-4.23-2.09-8.45-4.19-12.69-6.25a4.85,4.85,0,0,0-1.8-.39c-2.09-.07-3.77-.68-4.72-2.74-.17-.36-1-.44-1.46-.65a4.55,4.55,0,0,0-.32,1.59c.15,1,.61,1.85.82,2.79a44.81,44.81,0,0,0,.91,5c1.16,3.73,2.65,7.36,3.76,11.09a18.5,18.5,0,0,1,1.09,6.59c-.49,5.68-1.47,11.31-2.19,17a7.22,7.22,0,0,0,.36,1.95,5.25,5.25,0,0,0,1.78-.41c4.35-3.39,8.75-6.74,12.94-10.32a8.87,8.87,0,0,0,3.33-5.66,2.55,2.55,0,0,1,.36-1.23C509.37,300.62,508.28,297.19,509.49,294.37Z" transform="translate(-285.62 -108.86)"/><path class="cls-1" d="M524.62,433.25a34.5,34.5,0,0,1-.94,12.39c-.91,2.95-2,5.86-3.08,8.76-1,2.48-3.41,3.4-5.41,4.68-1,.67-1.51-.48-1.78-1.47-1.15-4.1-2.21-8.26-3.58-12.32a16.64,16.64,0,0,0-5.59-7.56,45.12,45.12,0,0,1-4.74-4.21,62.09,62.09,0,0,1-6.67-7.9c-1.95-3-1.63-6.66-1.51-10.15.09-2.29.17-4.58.12-6.88-.1-4.33-.67-8.71-.31-13,.26-3.08,2-6,2.48-9.12.41-2.63,0-5.42-.15-8.13,0-.53-.56-1-.86-1.52,2.33-1.52,2.59-1.42,4,.6a18.39,18.39,0,0,0,3,3.47c4.77,4.25,9.67,8.35,14.41,12.63a14.24,14.24,0,0,1,3.64,4.62c1.88,4.48,4.31,8.81,4.81,13.81.22,2.41.84,4.77,1.14,7.17.19,1.47.06,3,.17,4.46C524,426.85,524.41,430,524.62,433.25Zm-2.41,6.6c.22-4.28-.52-8.57-.5-12.87A68.6,68.6,0,0,0,517,401.85a17,17,0,0,0-5.14-7.37c-4.87-4-9.41-8.44-14.1-12.7-.41-.36-.83-.7-1.57-1.3a5.84,5.84,0,0,0-.22,1.37,21.63,21.63,0,0,1-1.54,10.93,25,25,0,0,0-.93,14.34,8.06,8.06,0,0,1,.24,1.83c-.08,3.61-.36,7.22-.27,10.81a7.83,7.83,0,0,0,1.28,4.56,123.54,123.54,0,0,0,10.53,11.53c4.6,4.31,7.93,9.13,8.91,15.46a50.88,50.88,0,0,0,1.44,5.14,19.83,19.83,0,0,0,2.46-2.64A30.65,30.65,0,0,0,522.21,439.85Z" transform="translate(-285.62 -108.86)"/><path class="cls-1" d="M508.41,289.19c.31,1.71.71,3.4,1.08,5.18-1.21,2.82-.12,6.25-2.38,8.85a2.55,2.55,0,0,0-.36,1.23,8.87,8.87,0,0,1-3.33,5.66c-4.19,3.58-8.59,6.93-12.94,10.32a5.25,5.25,0,0,1-1.78.41,7.22,7.22,0,0,1-.36-1.95c.72-5.66,1.7-11.29,2.19-17a18.5,18.5,0,0,0-1.09-6.59c-1.11-3.73-2.6-7.36-3.76-11.09a44.81,44.81,0,0,1-.91-5c-.21-.94-.67-1.83-.82-2.79a4.55,4.55,0,0,1,.32-1.59c.5.21,1.29.29,1.46.65,1,2.06,2.63,2.67,4.72,2.74a4.85,4.85,0,0,1,1.8.39c4.24,2.06,8.46,4.16,12.69,6.25A5.82,5.82,0,0,1,508.41,289.19Zm-1.81,7.88c1.32-5.45-.07-9.8-5.42-11.9-3.61-1.42-7-3.48-10.53-5-1.13-.48-2.6-.2-3.9-.27.29,1.23.5,2.5.89,3.71,1.44,4.62,3.19,9.16,4.38,13.84,1.49,5.82.23,11.64-.9,17.39-.12.58-.19,1.16-.28,1.74l.48.26c1.44-1.06,2.88-2.11,4.28-3.18s2.62-2.12,4-3.12c2.22-1.66,4.19-3.54,5-6.28C505.35,301.85,506,299.47,506.6,297.07Z" transform="translate(-285.62 -108.86)"/><path class="cls-1" d="M493.32,113.29a7.58,7.58,0,0,1,1.1,1.54,6.82,6.82,0,0,1-2,1c-1.71.16-3.49-.12-5.15.23-1,.2-1.93,1.16-2.86,1.84-.63.48-1.11,1.25-1.81,1.58-4.93,2.33-7.67,6.81-10,11.22a56.86,56.86,0,0,1-9,12.15,79.46,79.46,0,0,1-7.53,6.91,18.4,18.4,0,0,1-4.17,2c-2,.87-4,1.65-5.92,2.61s-3.71,2-5.56,3c-3.66,2.07-7.32,4.18-11,6.27a17.79,17.79,0,0,0,6.5,8.57c1.26.85.82,1.88,1,2.92.35,1.9.35,3.58-1.51,4.79a1.87,1.87,0,0,0-.65,1.1c-.53,2.91-2.72,3.08-5,2.92A16.22,16.22,0,0,0,419,187.4c-1.34,1-2.57,2.12-3.95,3a7.69,7.69,0,0,1-8.9.1,4.11,4.11,0,0,1-1.44-1.4c-1.45-2.44-3.16-3.11-6-2.27-2.22.66-4.53,1.14-6.71,2-1.52.59-2.8,1.87-4.32,2.37a37,37,0,0,1-7.21,1.6,31.25,31.25,0,0,0-14.44,6c-.85.6-1.71,1.2-2.6,1.74-2.07,1.25-2.67,3.37-3.2,5.48-1,4-2,7.92-2.67,11.94-.51,3-.49,6-.73,9.07a7,7,0,0,1-.26,2.19c-1.16,2.92.21,5.78.17,8.67,0,.26.52.71.86.77,7,1.51,12.16,6.3,18.1,9.72,4.6,2.67,9.31,5.13,13.93,7.79a18.62,18.62,0,0,1,3.38,2.68,8.78,8.78,0,0,0,6.26,2.41c3.32,0,6.54.36,9.31,2.65,1.34,1.11,3.15,1.64,4.79,2.38,3.1,1.39,4.24,4.11,4.47,7.13a19.12,19.12,0,0,1-.72,6.73,34.83,34.83,0,0,0-.93,10.49c0,1.5-.25,3-.15,4.51.14,1.88.55,3.75.84,5.63.36,2.26.65,4.54,1.11,6.78a31,31,0,0,0,1.32,3.76,32.86,32.86,0,0,1,1.28,4.24c.05.31-1,1.22-1.52,1.2a53.34,53.34,0,0,1-7.77-.73,4.24,4.24,0,0,1-2.39-2.13c-1.41-2.49-2.52-5.15-3.84-7.68-1.43-2.77-4.19-3.73-6.87-4.75a68.62,68.62,0,0,1-7.58-3,51.66,51.66,0,0,1-6.93-4.59c-1.29-.94-2.24-2.36-3.56-3.25a50.84,50.84,0,0,0-14.85-7.25c-2.21-.63-4.08.24-5.85,1.21-4.13,2.3-6.64,6.09-8.92,10-1,1.69-1.68,3.59-2.8,5.17-1.53,2.12-.3,4,.13,5.93.36,1.71.67,3.44,1,5.17.1.55,0,1.13.1,1.66.6,2.43,1.29,4.82,1.82,7.25.1.48-.21,1.44-.55,1.58-4.43,1.71-6.45,5.88-9.38,9.1a12.3,12.3,0,0,0-3.21,10.69,5.86,5.86,0,0,1-.57,2.13l-.82-.21a6.74,6.74,0,0,1,.38-1.15c-.52-.24-1-.51-1.13-.56v-4.41a3.43,3.43,0,0,1,.08-1.46c1-2,2.28-3.85,3.2-5.87,1.65-3.64,5.12-5.44,7.77-8.06a4.36,4.36,0,0,0,1.44-4.48c-.58-2.77-.74-5.64-1.2-8.45a10,10,0,0,0-1.21-3.87c-1.36-2-.55-3.78.24-5.46a65.71,65.71,0,0,1,4.73-8.58c1.1-1.65,2.88-2.81,4.37-4.18.2-.2.53-.31.66-.53a10.66,10.66,0,0,1,9.06-5c2.53-.08,5.25,1,7.63,2.13s4.26,2.73,6.74,3.61c3.45,1.21,5.71,4,8.11,6.67.2.24.32.58.58.72,2.24,1.21,4.45,2.55,6.79,3.56,3.23,1.42,6.64,2.44,9.86,3.9,2.24,1,3,3.28,3.9,5.44a52.62,52.62,0,0,0,2.89,6.35c.75,1.31,4.21,1.5,6.31.65-2.17-5.15-2.74-10.7-3.21-16.12s0-11.16.23-16.73c.09-2,.52-4.06.67-6.08.31-4.19-2.17-6.48-5.59-8.16-1.49-.72-2.76-1.88-4.26-2.5a24.76,24.76,0,0,0-4.81-1.14,44.77,44.77,0,0,1-6.31-1.1c-1.3-.44-2.23-1.88-3.48-2.63-3.4-2.06-6.89-4-10.31-6s-6.68-4.11-10.12-6c-4.46-2.48-8.36-6.11-13.8-6.68-1.47-.15-1.83-1.21-2.16-2.73-.84-3.9.72-7.63.36-11.45a8.6,8.6,0,0,0-.07-1.68c-1.16-4,1.23-7.35,1.8-11,.1-.65,1-1.2,1.38-1.68-.27-3.88.12-7.53,2.19-10.88a7.44,7.44,0,0,1,3.91-3.27,14.87,14.87,0,0,0,2.43-1.37c.17-.08.29-.25.46-.3,3.62-1.15,6.58-3.85,10.43-4.5,1.32-.23,2.64-.53,4-.71a16.31,16.31,0,0,0,7.86-3.11c3.33-2.46,7.22-3.16,11.22-3.39a14.72,14.72,0,0,0,1.49-.08,3.6,3.6,0,0,1,4.29,2.31c1.51,3.13,4,3.76,7.17,2.17.55-.27,1.08-.62,1.63-.92,1.47-.81,3-1.61,4.69-2.55V184.6c.1.15.18.31.29.48,1.57-.7,3.14-1.45,4.75-2.05a10.71,10.71,0,0,1,3.68-1c4,0,5.34-1.7,5.78-5.51a4.48,4.48,0,0,0-1.38-3.61,48.13,48.13,0,0,1-4.59-6.73c-1.13-1.93-.27-3.57,1.75-4.53,2.7-1.3,5.35-2.72,8-4.21,4.57-2.65,9-5.53,13.64-8a43.73,43.73,0,0,0,9.2-6.21,58,58,0,0,0,7.07-8.1c.84-1.11,1.15-2.6,1.8-3.88.46-.91,1.09-1.75,1.61-2.65.41-.74.68-1.54,1.14-2.26a29.13,29.13,0,0,1,7.74-8.4c.82-.57,1.62-1.15,2.46-1.68,1.78-1.09,3.4-2.58,5.76-2.24a5.11,5.11,0,0,0,1.2-.41,9,9,0,0,0-9-2.1A68.72,68.72,0,0,0,460.9,121c-5.15,3.52-9.72,7.92-14.53,11.94-3.2,2.67-6.26,5.51-9.62,8a86.55,86.55,0,0,1-10.54,6.71,43.93,43.93,0,0,1-7.87,2.74,58.25,58.25,0,0,1-7.35,2,37.52,37.52,0,0,1-7.41.47A60.71,60.71,0,0,0,383,155.45c-8.52,2.66-16.22,6.68-22.7,13.07A60.81,60.81,0,0,1,343,180c-3.77,1.74-7.48,3.61-11.31,5.22a51.35,51.35,0,0,1-6.08,1.73l-1.59.37c-.07.21-.13.43-.19.64a32.18,32.18,0,0,0,3.63,1.55c1.11.34,2.36.28,3.47.62,2.81.85,4,2.89,3.84,5.87-.16,3.33,0,6.67-.19,10-.16,3.78-.63,7.54-.72,11.32a58.85,58.85,0,0,0,.51,9c.65,4.74,1.25,9.46.36,14.18-.49,2.62-1.3,5.19-2,7.75a69.59,69.59,0,0,1-2.19,7.48c-1.23,3.08-2.81,6-4.26,9-.15.33-.48.6-.56,1-1.42,5.54-5.09,10-7.55,15-2.09,4.26-4.31,8.53-4.88,13.41-.41,3.58-1.36,7.1-1.62,10.66-.29,4-.07,8,0,11.94,0,4.72-.21,9.48.08,14.19.47,7-1.5,13.63-2.51,20.42a41.14,41.14,0,0,1-2.63,10.47c-.41.94-.91,1.64-1.93,1.64h-.24A164.73,164.73,0,0,0,309,338.85c.43-3.79.11-7.68.14-11.51,0-4.35.12-8.69.09-13,0-2.6-.33-5.2-.35-7.82a24,24,0,0,1,.43-4.79,134.52,134.52,0,0,1,3.1-14.2c1.08-3.45,3.06-6.64,4.77-9.85s3.89-6.49,5.61-9.86a101.11,101.11,0,0,0,4.67-10.35,97.33,97.33,0,0,0,3-10,73.62,73.62,0,0,0,2.22-10.37,28.9,28.9,0,0,0-.42-8.25,45.22,45.22,0,0,1-.7-13.88c.56-4.24.53-8.57.68-12.86a54.19,54.19,0,0,0,0-7.43,3.74,3.74,0,0,0-2-2.36c-1.61-.73-3.46-.92-5.14-1.57s-3.57-1.35-4.27-3.42c-.36-1.1-.12-1.84,1.11-2.06.19,0,.38-.07.55-.08,7.85-.7,14.54-4.42,21.28-8,4-2.14,8-4.15,11.87-6.44a11.12,11.12,0,0,0,3.27-3.42c2.81-4,7-6.09,11.26-8,3.75-1.64,7.6-3,11.43-4.45a42.33,42.33,0,0,1,7-2.43,97,97,0,0,1,10.88-1.3c3-.24,6.09-.19,9.13-.33a10.06,10.06,0,0,0,2.37-.47,76.24,76.24,0,0,0,7.83-2.43,86.3,86.3,0,0,0,11-5.31c3.86-2.33,7.46-5.17,11.1-7.85,1.25-.91,2.14-2.57,3.49-3,3.44-1.17,5-4.37,7.6-6.42,5.42-4.28,10.71-8.67,17.14-11.43,3.25-1.38,6.45-2.92,9.74-4.21,4.48-1.76,8.57-.61,12.33,2.07A21.52,21.52,0,0,1,493.32,113.29Z" transform="translate(-285.62 -108.86)"/><path class="cls-1" d="M489.3,113.68c-.55.19-.89.44-1.2.41-2.36-.34-4,1.15-5.76,2.24-.84.53-1.64,1.11-2.46,1.68a29.13,29.13,0,0,0-7.74,8.4c-.46.72-.73,1.52-1.14,2.26-.52.9-1.15,1.74-1.61,2.65a29.4,29.4,0,0,1-1.8,3.88,58,58,0,0,1-7.07,8.1,43.73,43.73,0,0,1-9.2,6.21c-4.65,2.49-9.07,5.37-13.64,8-2.6,1.49-5.25,2.91-8,4.21-2,1-2.88,2.6-1.75,4.53a48.13,48.13,0,0,0,4.59,6.73,4.48,4.48,0,0,1,1.38,3.61c-.44,3.81-1.81,5.51-5.78,5.51a10.71,10.71,0,0,0-3.68,1c-1.61.6-3.18,1.35-4.75,2.05-.11-.17-.19-.33-.29-.48v1.18c-1.73.94-3.22,1.74-4.69,2.55-.55.3-1.08.65-1.63.92-3.13,1.59-5.66,1-7.17-2.17a3.6,3.6,0,0,0-4.29-2.31,14.87,14.87,0,0,1-1.49.08c-4,.23-7.89.93-11.22,3.39a16.31,16.31,0,0,1-7.86,3.11c-1.33.18-2.65.48-4,.71-3.85.65-6.81,3.35-10.43,4.5-.17.05-.29.22-.46.3a14.87,14.87,0,0,1-2.43,1.37,7.44,7.44,0,0,0-3.91,3.27c-2.07,3.35-2.46,7-2.19,10.88-.41.48-1.28,1-1.38,1.68-.57,3.68-3,7.06-1.8,11a8.6,8.6,0,0,1,.07,1.68c.36,3.82-1.2,7.55-.36,11.45.33,1.52.69,2.58,2.16,2.73,5.44.57,9.34,4.2,13.8,6.68,3.44,1.88,6.73,4,10.12,6s6.91,3.91,10.31,6c1.25.75,2.18,2.19,3.48,2.63a44.77,44.77,0,0,0,6.31,1.1,24.76,24.76,0,0,1,4.81,1.14c1.5.62,2.77,1.78,4.26,2.5,3.42,1.68,5.9,4,5.59,8.16-.15,2-.58,4-.67,6.08-.18,5.57-.71,11.2-.23,16.73s1,11,3.21,16.12c-2.1.85-5.56.66-6.31-.65a52.62,52.62,0,0,1-2.89-6.35c-.86-2.16-1.66-4.43-3.9-5.44-3.22-1.46-6.63-2.48-9.86-3.9-2.34-1-4.55-2.35-6.79-3.56-.26-.14-.38-.48-.58-.72-2.4-2.62-4.66-5.46-8.11-6.67-2.48-.88-4.47-2.52-6.74-3.61S367,281,364.5,281.1a10.66,10.66,0,0,0-9.06,5c-.13.22-.46.33-.66.53-1.49,1.37-3.27,2.53-4.37,4.18a65.71,65.71,0,0,0-4.73,8.58c-.79,1.68-1.6,3.46-.24,5.46a10,10,0,0,1,1.21,3.87c.46,2.81.62,5.68,1.2,8.45a4.36,4.36,0,0,1-1.44,4.48c-2.65,2.62-6.12,4.42-7.77,8.06-.92,2-2.17,3.89-3.2,5.87a3.43,3.43,0,0,0-.08,1.46v4.41c.1.05.61.32,1.13.56a6.74,6.74,0,0,0-.38,1.15,3.1,3.1,0,0,0,1.06,3.47c2.17,1.71,4.24,3.87,6.74,4.81,4.74,1.8,8.22,5.36,12.22,8.11,6.72,4.6,9.84,4.43,17.54,1.37l7.35-3c.16.17.33.34.48.51a11.34,11.34,0,0,1-.77,2.61c-1.45,2.61-.8,5.3,0,7.78a5.08,5.08,0,0,0,4.35,3.88c2.67.26,5.35.28,8,.5a25.81,25.81,0,0,1,5.32.8,19.22,19.22,0,0,0,11.72,0c5-1.6,10.15-2.92,15.26-4.29a2.33,2.33,0,0,1,1.7.17c1.5.94,2.87,2.09,4.38,3,1,.6,1.54,1.63.87,2.28a47.54,47.54,0,0,1-5.35,4.12c-.09.06-.4-.25-.64-.34-1.59-.6-2.07-.2-2.22,1.46-.65,7-1.2,14-2.14,21-.7,5.07-1.37,10.12-.91,15.23a3.71,3.71,0,0,0,.52,1.71c1.45,5,4.21,15.21,5.75,19.34,1.86,5,4.26,9.8,6.36,14.71a15.92,15.92,0,0,1,.56,2.91c-.8-.36-1.18-.45-1.45-.63a37.13,37.13,0,0,0-3.17-2.4c-1.53-.89-3.28-1.42-4.77-2.38-2.56-1.62-4.94-3.54-7.46-5.22-3.51-2.32-7.24-4.24-10.28-7.3a107.11,107.11,0,0,0-9.94-8.35c-2.19-1.75-4.57-3.23-6.86-4.84-.6-.41-1.39-1.22-1.82-1.06-1.54.53-2.51-.41-3.57-1.05-2.55-1.49-4.95-3.28-7.58-4.6-5.36-2.63-10.76-5.17-16.24-7.49s-11.36-2.57-17.12-3.41c-7.07-1-14,.87-20.95,1.73a30.7,30.7,0,0,1-5.16-.22,5.14,5.14,0,0,0-.14-.86c1.45-1.85,2.94-3.64,4.35-5.52s1.33-3.07-1-4.06a23.91,23.91,0,0,0-7-2.26c-7-.61-13.85-.46-19.58,4.55a23.76,23.76,0,0,1-3.93,2.3l-.34-.38c.61-1.18,1.24-2.34,1.83-3.52,1.74-3.5,3.4-7,5.23-10.49,1.54-2.91,3.42-5.65,4.91-8.57,2-3.87,3.73-7.84,5.55-11.79.37-.81.63-1.65.94-2.48l-.47-.36c-.59.42-1.31.77-1.91,1.19l-1.83-2.24c1,0,1.52-.7,1.93-1.64a41.05,41.05,0,0,0,2.78-10.49c1-6.79,3-13.41,2.51-20.42-.29-4.71-.08-9.47-.08-14.19,0-4-.24-8,.05-11.94.26-3.56,1.21-7.08,1.62-10.66.57-4.88,2.79-9.15,4.88-13.41,2.46-5,6.13-9.45,7.55-15,.08-.36.41-.63.56-1,1.45-3,3-6,4.26-9.05a69.59,69.59,0,0,0,2.19-7.48c.7-2.56,1.51-5.13,2-7.75.89-4.72.29-9.44-.36-14.18a58.85,58.85,0,0,1-.51-9c.09-3.78.56-7.54.72-11.32.15-3.34,0-6.68.19-10,.15-3-1-5-3.84-5.87-1.11-.34-2.36-.28-3.47-.62a32.18,32.18,0,0,1-3.63-1.55c.06-.21.12-.43.19-.64l1.59-.37a51.35,51.35,0,0,0,6.08-1.73c3.83-1.61,7.54-3.48,11.31-5.22a60.52,60.52,0,0,0,17.19-11.44c6.48-6.39,14.18-10.41,22.7-13.07A60.71,60.71,0,0,1,403.53,153a37.52,37.52,0,0,0,7.41-.47,58.25,58.25,0,0,0,7.35-2,43.93,43.93,0,0,0,7.87-2.74,86.8,86.8,0,0,0,10.47-6.69c3.36-2.44,6.42-5.28,9.62-8,4.81-4,9.38-8.42,14.53-11.94a68.72,68.72,0,0,1,19.52-9.53A9,9,0,0,1,489.3,113.68Z" transform="translate(-285.62 -108.86)"/><path class="cls-1" d="M437.21,454.26c.31,1.47.35,2.92-1.24,3.75s-2.57.06-3.8-1a33.52,33.52,0,0,0-5.05-3.1c-1.21-.72-2.5-1.35-3.68-2.12-3.68-2.39-7.39-4.79-11-7.32-2.18-1.54-4.16-3.34-6.25-5-4.1-3.3-8.23-6.61-12.32-9.94-.53-.45-.77-1.27-1.33-1.64a14.27,14.27,0,0,0-4-2.35c-4.09-1.13-7.19-3.9-10.75-5.92a35.12,35.12,0,0,0-4.67-2.24c-5-2-10.06-3.95-15.17-5.66-2.21-.76-4.64-.84-7-1.29a15.17,15.17,0,0,1-2.46-.75c-4.19-1.54-8.49-1.16-12.76-.68-4.64.51-9.24,1.23-13.9,1.62a16.2,16.2,0,0,1-5.32-.66c-1.76-.43-2.27-2-1.28-3.53,1.09-1.73,2.43-3.3,3.52-5s1-2.21-1-2.84a27.09,27.09,0,0,0-14.59-.36c-2.54.58-4.71,2.67-7.09,4q-4.23,2.31-8.6,4.38a1.79,1.79,0,0,1-1.56-.65,2.3,2.3,0,0,1-.14-1.9c3.77-6.86,7.67-13.65,11.4-20.53,1.83-3.39,3.35-6.93,5-10.4a65.6,65.6,0,0,1,3.34-6.45,3.18,3.18,0,0,1,.91-.88c.6-.42,1.32-.77,1.91-1.19l.47.36c-.31.83-.57,1.67-.94,2.48-1.82,4-3.58,7.92-5.55,11.79-1.49,2.92-3.37,5.66-4.91,8.57-1.83,3.44-3.49,7-5.23,10.49-.59,1.18-1.22,2.34-1.83,3.52l.34.38a23.76,23.76,0,0,0,3.93-2.3c5.73-5,12.61-5.16,19.58-4.55a23.91,23.91,0,0,1,7,2.26c2.29,1,2.46,2,1,4.06-1.41,1.88-2.9,3.67-4.35,5.52.05.29.1.57.14.86a30.7,30.7,0,0,0,5.16.22c7-.86,13.88-2.75,20.95-1.73,5.76.84,11.68,1.08,17.12,3.41s10.88,4.86,16.24,7.49c2.63,1.32,5,3.11,7.58,4.6,1.06.64,2,1.58,3.57,1,.43-.16,1.22.65,1.82,1.06,2.29,1.61,4.67,3.09,6.86,4.84a107.11,107.11,0,0,1,9.94,8.35c3,3.06,6.77,5,10.28,7.3,2.52,1.68,4.9,3.6,7.46,5.22,1.49,1,3.24,1.49,4.77,2.38a37.13,37.13,0,0,1,3.17,2.4c.27.18.65.27,1.45.63a15.92,15.92,0,0,0-.56-2.91c-2.1-4.91-4.5-9.72-6.36-14.71-1.54-4.13-4.3-14.29-5.75-19.34a2.52,2.52,0,0,0,2.2,1.13c-.06-.36-.13-.72-.17-1.08h0c.58,1.49,1.4,8.42,2.07,9.86,1.92,4.21,3.78,8.47,5.9,12.59C434,445.09,436.21,449.43,437.21,454.26Z" transform="translate(-285.62 -108.86)"/><path class="cls-1" d="M434.4,371.31c1.11.67,1,1.39.94,2.6-.31,4.47-4,5.49-6.95,7.24a3.13,3.13,0,0,0-1.78,2.57q-.74,7.5-1.54,15c-.17,1.48-.54,2.93-.82,4.4a43.8,43.8,0,0,0-.53,15.19,12.46,12.46,0,0,1-2.34-1.09,10.37,10.37,0,0,0,.31,1,3.71,3.71,0,0,1-.52-1.71c-.46-5.11.21-10.16.91-15.23.94-7,1.49-14,2.14-20.95.15-1.66.63-2.06,2.22-1.46.24.09.55.4.64.34a47.54,47.54,0,0,0,5.35-4.12c.67-.65.12-1.68-.87-2.28-1.51-.9-2.88-2.05-4.38-3a2.33,2.33,0,0,0-1.7-.17c-5.11,1.37-10.23,2.69-15.26,4.29a19.22,19.22,0,0,1-11.72,0,25.81,25.81,0,0,0-5.32-.8c-2.67-.22-5.35-.24-8-.5a5.08,5.08,0,0,1-4.35-3.88c-.8-2.48-1.45-5.17,0-7.78a11.34,11.34,0,0,0,.77-2.61c-.15-.17-.32-.34-.48-.51-2.46,1-4.89,2-7.35,3-7.7,3.06-10.82,3.23-17.54-1.37-4-2.75-7.48-6.31-12.22-8.11-2.5-.94-4.57-3.1-6.74-4.81a3.08,3.08,0,0,1-1.06-3.41l.82.21a21.17,21.17,0,0,0,8.4,6.33,43.7,43.7,0,0,1,6.49,4c2.91,2,5.69,4.09,8.6,6.06s6,1.61,9,.55c2.57-.91,5-2.06,7.58-3.12,1.32-.54,2.6-1.14,3.95-1.64a2.44,2.44,0,0,1,3.27,1.11,2.46,2.46,0,0,1,.16,1.73A4.44,4.44,0,0,1,384,360c-1.72,2.6-1.26,5.41-.58,8.13.41,1.68,2,2.24,3.66,2.39,2.72.26,5.46.45,8.18.76,3,.34,6,.8,9,1.19,3.23.43,6.06-1,9-1.89,4.62-1.42,9.31-2.67,14-3.82,1.42-.36,2.53,0,3.37,1.78C431.21,369.76,433,370.49,434.4,371.31Z" transform="translate(-285.62 -108.86)"/><path class="cls-1" d="M423.72,418.29a6.73,6.73,0,0,0,.17,1.08,2.52,2.52,0,0,1-2.2-1.13c-.12-.37-.23-.72-.31-1A12.59,12.59,0,0,0,423.72,418.29Z" transform="translate(-285.62 -108.86)"/></svg>