<svg id="Layer_1" data-name="Layer 1" xmlns="http://www.w3.org/2000/svg" viewBox="0 0 895.46 638.97"><defs><style>.cls-1{opacity:0.58;}.cls-2{fill:#fff;}</style></defs><title>final_logo_outlines</title><rect class="cls-1" width="895.46" height="638.97"/><path class="cls-2" d="M515.67,437.49c-1.52,1.91-3.08,3.79-4.52,5.75-.94,1.28-1.51,2.86-2.57,4-3.26,3.55-6.82,6.85-10,10.49a18.8,18.8,0,0,1-6.87,4.86,6.81,6.81,0,0,0-1.83,1.4c-3.05,2.93-6.1,5.87-9.11,8.86a8.31,8.31,0,0,0-1.8,2.38c-2,4.52-4,9.08-5.94,13.63-.26.59-.52,1.19-.81,1.77a16.79,16.79,0,0,0-1.91,7.5,107.78,107.78,0,0,1-.65,12.59,81,81,0,0,1-2.57,10.63A37.5,37.5,0,0,0,465.92,534c0,.24.18.5.12.7-.25.75-.56,1.49-.85,2.24-.7-.5-1.69-.85-2-1.53a23.44,23.44,0,0,1-1.2-3.89c-1.4-4.69-2.63-9.44-4.29-14-.69-1.93-2.31-3.52-3.45-5.29-2.15-3.33-4.21-6.7-6.4-10-.91-1.37-2.22-2.5-3-3.92a49.5,49.5,0,0,1-3.87-7.87c-.47-1.32.24-3,.25-4.55.07-7.93-.07-15.87.2-23.79a14.52,14.52,0,0,1,3.21-8.69,12.65,12.65,0,0,0,2.77-6.81c.35-3.24.81-6.47,1.14-9.71a26.41,26.41,0,0,0-4.42-17.81c-2.41-3.6-3.55-7.67-4.59-11.83a13.32,13.32,0,0,0-2.8-4.88,13.78,13.78,0,0,1-3.28-9.48c.11-4.92.26-9.86,0-14.77-.12-2.4-1.17-4.75-1.7-7.14-.65-2.92-1.57-5.85.15-8.77,1.53-2.59,2.88-5.3,4.48-7.85.73-1.18,2.25-2,2.73-3.2,1.89-4.85,5.82-8,9.24-11.54a10,10,0,0,0-.14-14.16c-1.8-1.77-3.45-3.7-5.24-5.49a8.15,8.15,0,0,0-1.82-1c-1.9-1.09-5.88-10.1-6.36-12-1.76-6.78-1-10.17-.34-17.09.13-1.47,3-.93,4.07-2,3.44-3.38,5.34-6.39,6.36-10.83,1.45-6.29,2.68-12.63,3.86-19,1-5.23,2.4-10.49,1.11-15.82a24.13,24.13,0,0,0-3-7.23c-2.61-4.08-5.78-7.8-8.4-11.86-1.29-2-1.77-4.51-2.83-6.68a51.24,51.24,0,0,1-4.47-15.41,10.76,10.76,0,0,1,.7-6,27.85,27.85,0,0,1,5.06-6.72c2.73-2.84,5.89-5.28,8.64-8.11,1.19-1.23,1.79-3,2.66-4.58,1.1-2,2.13-4,3.34-5.82a4,4,0,0,1,1.88-1.23c.9-.37,1.58,0,1.51,1-.11,1.83-.32,3.65-.5,5.47a1.21,1.21,0,0,1-.21.67c-3,3-2.66,7.44-4.78,10.82A23.89,23.89,0,0,0,447,203.53a4.77,4.77,0,0,0,3.32,3.63c1.73.61,3.48,1.16,5.21,1.78,2.71,1,5.41,2,8.11,3a7.41,7.41,0,0,0,2.2.7c3.12.09,4.54,2.05,5.55,4.66a49,49,0,0,0,2.31,5c2.12,4.1,6,5.89,10,7.42,5.06,1.92,10.38,2.71,15.67,3.66a103.81,103.81,0,0,1,10.5,2.6,12.12,12.12,0,0,1,3,1.8c1,.67,2.05,1.4,3.08,2.1,1.66,1.12,3.36,2.17,5,3.36a23.45,23.45,0,0,1,7.26,8.77c1.78,3.72,3.32,7.54,5,11.28,1.38,3,3.16,5.63,6.19,7.3,3.91,2.15,6.47,5.64,8.79,9.34a25.21,25.21,0,0,0,2.58,3.34c1.46,1.63,3.18,3.05,4.46,4.79,2.53,3.44,1.58,7.22-2.94,9.42-3.94,1.93-8,1.24-11.82.27a13.27,13.27,0,0,0-8.17.36,73.36,73.36,0,0,1-17.13,3.57c-6.12.69-12.25,1.35-18.36,2.14a14.31,14.31,0,0,0-9.38,4.55c-1.95,2.22-1.56,4.4,1,5.82,6.25,3.4,13,5.21,19.92,6.65,4.3.91,7.64,3.35,10.66,6.36,2.09,2.09,4,4.38,7.06,5.18,3.89,1,7.73,2.22,11.62,3.23,2.27.58,4.61.87,6.88,1.46a2,2,0,0,1,1.26,1.41,20.85,20.85,0,0,1-1.19,10.14c-.8,1.95-1.89,3.77-2.82,5.66a9.17,9.17,0,0,0-.92,2.27c-.86,4.89-1.78,9.77-2.41,14.68-.6,4.57-1,9.18-1.21,13.78-.09,2.1.53,4.22.73,6.35a37,37,0,0,1-1.88,15.89c-.51,1.44-.69,3-1.27,4.41-1.31,3.21-2.79,6.36-4.17,9.55-2.51,5.8-5.1,11.57-7.43,17.44-.72,1.81-.61,3.94-1.1,5.87-.19.77-1,1.39-1.5,2.08-.58-.55-1.41-1-1.69-1.66-1-2.33-1.77-4.75-2.63-7.13ZM452.34,172.9l-.62-.18a31.18,31.18,0,0,0-1.6,3.09c-1,2.72-2.22,5.33-4.62,7.19a47.12,47.12,0,0,0-3.91,3.28,73.33,73.33,0,0,0-5.28,5.45c-2.26,2.66-4.08,5.49-3.28,9.34a67.21,67.21,0,0,0,4.44,14.54c2.31,5,4.69,9.93,8.09,14.3,1.85,2.37,3.63,4.79,5.37,7.23a5,5,0,0,1,1,2.23c.39,4.11.92,8.17,0,12.35-1.13,5.18-1.68,10.47-2.59,15.7-.44,2.49-1.08,4.94-1.72,7.39-1.17,4.46-1.68,9.2-4.9,12.87-2.72,3.11-6.48,2-6.89,6.2-.95,3.87.48,8.69.68,12.35.22,4,4.49,10.62,8.11,12.78a6.39,6.39,0,0,1,1.3.93,46.42,46.42,0,0,1,5.33,5.35c1.5,2,2,4.47,2.25,7.08.49,4.31-1.82,6.86-4.43,9.63s-5.06,6-7.49,9.13c-1.13,1.44-2.08,3-3.11,4.51-.54.77-1.14,1.5-1.61,2.31-.82,1.43-1.44,3-2.38,4.35a6.77,6.77,0,0,0-.71,7.31c1.65,3.6,1.95,7.51,2,11.41,0,3.61-.14,7.22-.25,10.83s.55,6.67,3.19,9.29a8.34,8.34,0,0,1,2.25,3.7,38.46,38.46,0,0,0,4.73,12c2.62,4.1,5,8.22,5.26,13.25.09,2.11.15,4.24,0,6.35-.2,3.29-.55,6.58-.85,9.87a13.45,13.45,0,0,1-2.67,7.34c-1.7,2.17-3.44,4.38-3.55,7.38-.09,2.41-.41,4.81-.53,7.22-.19,3.58-.37,7.17-.4,10.76,0,2.87.16,5.75.3,8.62.12,2.43.25,4.87,1.95,6.87,1,1.21,2.07,2.42,3,3.7q1.63,2.21,3.1,4.52c1.66,2.58,3,5.41,4.95,7.75a23.47,23.47,0,0,1,4.7,8.64c.74,2.63,1.44,5.27,2.16,7.9a2.39,2.39,0,0,0,.81-1.28c.49-2,1-4,1.43-6,.74-3.15,1.8-6.28,2.1-9.47.47-4.82.39-9.7.57-14.55a6.81,6.81,0,0,1,.35-2.44c1-2.25,2.14-4.46,3.28-6.66,2.53-4.92,5.06-9.84,7.66-14.71a12.51,12.51,0,0,1,2.22-3c2.15-2.11,4.34-4.19,6.63-6.13,1.88-1.6,3.92-3,5.9-4.47a19.57,19.57,0,0,0,2.6-1.84q4.27-4.44,8.41-9c1.55-1.71,3.08-3.45,4.47-5.28,1.7-2.25,3.15-4.7,4.91-6.89s2.93-1.86,4,.78c.49,1.21,1,2.4,1.57,3.61,1.21-2.17,2.32-4.16,3.42-6.15a4.84,4.84,0,0,0,.28-.66c1.11-3,2.12-6,3.36-8.93,1.46-3.43,3.28-6.71,4.68-10.16,2.6-6.4,4.53-13,4.27-20-.2-5.26-.43-10.53-.32-15.79a63.79,63.79,0,0,1,1.17-11.8c.46-2.17.66-4.36,1.13-6.5a33.89,33.89,0,0,1,2.3-7.41c1.69-3.54,3.6-6.9,3.4-11.05-.07-1.3-.36-2-1.57-2.34-4.83-1.39-9.6-3-14.5-4.13a16.12,16.12,0,0,1-8.57-4.62c-1.18-1.24-2.43-2.42-3.73-3.55-3.48-3-7.79-4.15-12.15-5a51.85,51.85,0,0,1-16.28-5.57c-2.41-1.37-3.91-4.65-2.63-7.12a11.8,11.8,0,0,1,8.35-6.29c6.38-1.17,12.87-1.87,19.34-2.47a97.59,97.59,0,0,0,19.81-3.91,24.92,24.92,0,0,1,7-.89c1.68,0,3.36.87,5,.87a44.37,44.37,0,0,0,7.71-.68c1.63-.27,3.07-2.65,2.49-3.93a25.91,25.91,0,0,0-2.84-4.63c-1.85-2.43-3.9-4.72-5.8-7.12-2.05-2.59-3.86-5.33-6.77-7.17s-5.72-3.55-6.09-7.37a1.28,1.28,0,0,0-.19-.49c-1.58-3.18-3.07-6.4-4.77-9.51-1.81-3.29-3.2-6.91-6.38-9.25-2.61-1.91-5.39-3.6-7.9-5.63-4.59-3.72-10-5-15.65-5.67a56.28,56.28,0,0,1-18.54-5.15c-5.14-2.53-7.74-6.71-9.63-11.67a5.49,5.49,0,0,0-3.51-3.5c-5.87-2-11.71-4.09-17.61-6a3.88,3.88,0,0,1-2.84-3.05A26,26,0,0,1,445,193.6a39.75,39.75,0,0,1,2.81-8.34c1.66-3.44,2.2-7.29,4.25-10.56A4.71,4.71,0,0,0,452.34,172.9Z" transform="translate(22.21 23.85)"/><path class="cls-2" d="M368.11,327.93c-2.33,1-4.65,1.95-7,2.88-7.33,2.91-10.3,3.07-16.69-1.31-3.81-2.61-7.1-6-11.62-7.71-2.38-.9-4.35-2.94-6.42-4.57-1.45-1.15-1.35-2.69-.64-4.39l-1.08-.55v-4.19a3.33,3.33,0,0,1,.09-1.39c1-1.89,2.16-3.66,3-5.59,1.57-3.45,4.86-5.17,7.39-7.65a4.21,4.21,0,0,0,1.36-4.27c-.54-2.65-.69-5.38-1.14-8.05a9.25,9.25,0,0,0-1.16-3.68c-1.28-1.9-.52-3.59.24-5.18A61.33,61.33,0,0,1,339,264.1c1.05-1.55,2.74-2.67,4.14-4,.2-.18.51-.29.65-.5a10.09,10.09,0,0,1,8.6-4.74,16.43,16.43,0,0,1,7.25,2c2.17,1,4.06,2.6,6.42,3.43,3.29,1.15,5.45,3.87,7.72,6.36.2.22.32.55.56.68,2.13,1.16,4.23,2.42,6.45,3.39,3.08,1.34,6.33,2.32,9.39,3.71,2.12,1,2.88,3.12,3.71,5.17a48.34,48.34,0,0,0,2.74,6c.72,1.25,4,1.44,6,.61-2.08-4.89-2.62-10.16-3.07-15.33s.05-10.61.24-15.92c.06-1.93.48-3.85.62-5.78.29-4-2.06-6.16-5.33-7.76-1.4-.69-2.61-1.8-4.05-2.38A23.13,23.13,0,0,0,386.5,238a44,44,0,0,1-6-1.05c-1.24-.42-2.11-1.79-3.29-2.51-3.24-1.95-6.56-3.77-9.83-5.68s-6.35-3.9-9.6-5.69c-4.26-2.36-8-5.82-13.14-6.36-1.41-.14-1.75-1.15-2.06-2.59-.79-3.71.68-7.26.35-10.9a8.36,8.36,0,0,0-.07-1.59c-1.11-3.77,1.17-7,1.71-10.49.1-.64.92-1.16,1.31-1.61-.26-3.69.12-7.15,2.09-10.35a7,7,0,0,1,3.72-3.1,15.11,15.11,0,0,0,2.31-1.3c.15-.09.27-.26.43-.31,3.46-1.08,6.27-3.65,9.92-4.27,1.27-.21,2.52-.5,3.79-.67a15.76,15.76,0,0,0,7.48-3c3.15-2.33,6.85-3,10.67-3.22.47,0,1,0,1.41-.07a3.42,3.42,0,0,1,4.09,2.19c1.44,3,3.84,3.58,6.81,2.07.53-.27,1-.59,1.55-.87l4.46-2.43v-1.1l.27.45c1.51-.66,3-1.37,4.54-2a10.38,10.38,0,0,1,3.5-.95c3.78,0,5.08-1.62,5.49-5.25a4.25,4.25,0,0,0-1.31-3.43,46,46,0,0,1-4.36-6.4c-1.08-1.83-.26-3.41,1.65-4.32,2.58-1.22,5.1-2.57,7.57-4,4.34-2.51,8.56-5.26,13-7.64a42,42,0,0,0,8.77-5.89,53.91,53.91,0,0,0,6.72-7.71,23.46,23.46,0,0,0,1.71-3.69c.44-.87,1-1.67,1.52-2.52s.67-1.48,1.1-2.15a27.68,27.68,0,0,1,7.36-8c.77-.54,1.54-1.09,2.34-1.58,1.69-1,3.24-2.47,5.48-2.15.3,0,.63-.2,1.14-.38a8.54,8.54,0,0,0-8.52-2A65.32,65.32,0,0,0,444,102.66c-4.9,3.35-9.24,7.54-13.82,11.36-3,2.54-6,5.24-9.15,7.57A83.67,83.67,0,0,1,411,128a42.78,42.78,0,0,1-7.49,2.61,55.79,55.79,0,0,1-7,1.94,35.4,35.4,0,0,1-7.05.44,58.32,58.32,0,0,0-19.62,2.42c-8.11,2.54-15.43,6.37-21.6,12.44a57.44,57.44,0,0,1-16.43,10.91c-3.59,1.65-7.12,3.43-10.76,5a46.84,46.84,0,0,1-5.79,1.65c-.5.14-1,.24-1.51.36l-.18.6a31.76,31.76,0,0,0,3.45,1.49c1.06.32,2.24.25,3.3.57,2.68.82,3.79,2.76,3.66,5.59-.15,3.17,0,6.35-.18,9.52-.16,3.6-.61,7.18-.68,10.78a54.67,54.67,0,0,0,.48,8.58c.62,4.5,1.19,9,.34,13.5-.47,2.49-1.24,4.92-1.91,7.37a65.73,65.73,0,0,1-2.07,7.1c-1.18,2.94-2.68,5.75-4.06,8.61a7.24,7.24,0,0,0-.54.91c-1.35,5.29-4.83,9.5-7.18,14.27-2,4-4.1,8.12-4.64,12.77-.39,3.39-1.29,6.74-1.54,10.14-.27,3.76-.06,7.57-.06,11.35,0,4.5-.19,9,.1,13.5.43,6.66-1.44,13-2.39,19.43a39.22,39.22,0,0,1-2.5,9.93c-.42,1-.93,1.67-2.08,1.55a154.26,154.26,0,0,0,4.37-23.48c.41-3.61.1-7.3.13-10.95,0-4.13.12-8.27.09-12.4,0-2.48-.31-5-.34-7.44a23.31,23.31,0,0,1,.42-4.56,128.43,128.43,0,0,1,3-13.51c1-3.28,2.9-6.32,4.54-9.38s3.69-6.17,5.33-9.36a97.61,97.61,0,0,0,4.44-9.85,90.51,90.51,0,0,0,2.85-9.52,70.72,70.72,0,0,0,2.12-9.88,27.58,27.58,0,0,0-.39-7.74A42.7,42.7,0,0,1,321,192c.53-4,.49-8.15.65-12.23a52.12,52.12,0,0,0,0-7.07,3.49,3.49,0,0,0-1.87-2.24c-1.53-.71-3.29-.89-4.88-1.5s-3.41-1.3-4.07-3.25c-.35-1.05-.11-1.75,1.06-2a4.51,4.51,0,0,1,.53-.07c7.46-.67,13.83-4.2,20.24-7.65,3.77-2,7.61-3.94,11.29-6.12a11.05,11.05,0,0,0,3.12-3.26c2.67-3.84,6.65-5.8,10.71-7.59,3.55-1.56,7.23-2.86,10.86-4.23a41.11,41.11,0,0,1,6.66-2.32,97.13,97.13,0,0,1,10.37-1.23c2.88-.23,5.79-.18,8.68-.31a9.17,9.17,0,0,0,2.25-.45,72.29,72.29,0,0,0,7.45-2.32,81,81,0,0,0,10.45-5c3.69-2.21,7.09-4.91,10.57-7.47,1.18-.87,2-2.45,3.31-2.87,3.29-1.1,4.77-4.14,7.24-6.1,5.15-4.07,10.19-8.25,16.3-10.87,3.1-1.33,6.14-2.79,9.27-4,4.26-1.67,8.14-.58,11.74,2a21,21,0,0,1,2,1.45,7.82,7.82,0,0,1,1.05,1.47,6.42,6.42,0,0,1-1.92.9c-1.63.16-3.32-.1-4.9.21a8,8,0,0,0-2.72,1.76c-.61.46-1.07,1.19-1.73,1.5-4.69,2.22-7.3,6.48-9.53,10.68a54.28,54.28,0,0,1-8.51,11.63,73.07,73.07,0,0,1-7.16,6.57,17.5,17.5,0,0,1-4,1.89c-1.87.83-3.79,1.58-5.63,2.48s-3.54,1.89-5.29,2.87c-3.49,2-7,4-10.47,6a17,17,0,0,0,6.19,8.15c1.2.81.78,1.79,1,2.77.34,1.81.34,3.42-1.42,4.57a1.75,1.75,0,0,0-.63,1c-.51,2.76-2.58,2.92-4.72,2.79a15.31,15.31,0,0,0-10.25,3.29c-1.28.92-2.44,2-3.76,2.86a7.32,7.32,0,0,1-8.47.09,4.35,4.35,0,0,1-1.37-1.33c-1.37-2.33-3-3-5.67-2.17-2.13.64-4.32,1.09-6.39,1.87-1.45.55-2.66,1.77-4.12,2.25a35.73,35.73,0,0,1-6.85,1.54,29.57,29.57,0,0,0-13.73,5.7c-.82.57-1.63,1.15-2.48,1.67-2,1.19-2.54,3.2-3,5.21-.92,3.77-1.89,7.53-2.54,11.35-.48,2.84-.48,5.75-.7,8.63a7.53,7.53,0,0,1-.24,2.09c-1.11,2.79.19,5.5.15,8.25,0,.25.5.66.82.73,6.63,1.44,11.58,6,17.22,9.25,4.37,2.53,8.86,4.88,13.24,7.41a17.94,17.94,0,0,1,3.14,2.59,8.45,8.45,0,0,0,6,2.3c3.15,0,6.21.33,8.85,2.52a19.3,19.3,0,0,0,4.55,2.25c2.95,1.32,4.05,3.91,4.25,6.8a18.36,18.36,0,0,1-.67,6.39,32.32,32.32,0,0,0-.89,10c0,1.44-.25,2.89-.14,4.31.13,1.79.52,3.56.8,5.34.34,2.16.61,4.33,1.06,6.46a32.29,32.29,0,0,0,1.24,3.58,27.84,27.84,0,0,1,1.22,4c.05.3-.95,1.15-1.45,1.14a49.17,49.17,0,0,1-7.38-.7,4.13,4.13,0,0,1-2.29-2c-1.33-2.38-2.38-4.9-3.64-7.32-1.37-2.63-4-3.55-6.54-4.51a66.22,66.22,0,0,1-7.21-2.84,50.27,50.27,0,0,1-6.6-4.37c-1.22-.9-2.13-2.24-3.38-3.09a48.67,48.67,0,0,0-14.13-6.89c-2.11-.61-3.87.21-5.57,1.15-3.92,2.18-6.31,5.79-8.48,9.54-.94,1.61-1.6,3.41-2.68,4.91-1.44,2-.26,3.78.14,5.65.35,1.63.64,3.27.92,4.91.09.52,0,1.08.1,1.59.56,2.3,1.21,4.58,1.71,6.9.1.46-.19,1.36-.52,1.49-4.21,1.63-6.12,5.6-8.91,8.66a11.69,11.69,0,0,0-3.06,10.18c.1.59-.33,1.28-.54,2a20,20,0,0,0,8,6,43.73,43.73,0,0,1,6.17,3.8c2.76,1.87,5.41,3.9,8.18,5.76s5.67,1.53,8.55.52c2.45-.86,4.82-2,7.22-2.95,1.25-.53,2.48-1.11,3.76-1.57a2.31,2.31,0,0,1,3.25,2.71,4,4,0,0,1-.48,1.5c-1.64,2.49-1.2,5.16-.56,7.74.39,1.6,1.91,2.13,3.48,2.28,2.6.24,5.2.42,7.79.71,2.86.33,5.7.76,8.55,1.14,3.08.4,5.78-.93,8.61-1.81,4.39-1.35,8.85-2.53,13.33-3.63,1.35-.34,2.41.05,3.2,1.7.57,1.2,2.3,1.9,3.59,2.68,1.07.64,1,1.32.91,2.48-.29,4.25-3.82,5.21-6.6,6.88a3,3,0,0,0-1.71,2.44c-.47,4.76-.93,9.52-1.46,14.27-.16,1.4-.51,2.78-.78,4.18a41.07,41.07,0,0,0-.35,15.47c-1.63-.07-2.41-1-2.57-2.69-.46-4.88.19-9.67.85-14.5.9-6.61,1.41-13.28,2-19.94.15-1.57.6-2,2.13-1.38.21.09.52.38.6.32a46.4,46.4,0,0,0,5.09-3.91c.64-.61.11-1.59-.83-2.16-1.44-.88-2.74-2-4.17-2.86a2.28,2.28,0,0,0-1.61-.17c-4.86,1.32-9.74,2.57-14.53,4.1a18.27,18.27,0,0,1-11.14,0,25.24,25.24,0,0,0-5.07-.77c-2.54-.21-5.09-.23-7.63-.47a4.87,4.87,0,0,1-4.13-3.69c-.77-2.37-1.38-4.92,0-7.41a11.8,11.8,0,0,0,.75-2.47Z" transform="translate(22.21 23.85)"/><path class="cls-2" d="M308.08,375.59a28.83,28.83,0,0,0,4.9.2c6.63-.81,13.2-2.62,19.93-1.64,5.48.8,11.12,1,16.29,3.24s10.36,4.62,15.44,7.13c2.52,1.25,4.8,3,7.22,4.38,1,.6,1.94,1.49,3.4,1,.41-.15,1.16.63,1.73,1,2.19,1.52,4.44,2.95,6.53,4.59a104.28,104.28,0,0,1,9.45,7.95c2.9,2.92,6.45,4.74,9.78,7,2.41,1.59,4.67,3.41,7.1,5,1.41.91,3.08,1.42,4.54,2.26,1.08.63,2,1.53,3,2.27a8.13,8.13,0,0,0,1.38.61,13.72,13.72,0,0,0-.54-2.76c-2-4.68-4.28-9.24-6.05-14-1.58-4.21-4.49-15.07-5.77-19.4a13.12,13.12,0,0,0,2.25,1.06c.55,1.4,1.34,8,2,9.37,1.84,4,3.61,8.05,5.63,12,2.14,4.14,4.24,8.27,5.21,12.87.3,1.4.34,2.78-1.18,3.56s-2.44.07-3.61-.93a31.93,31.93,0,0,0-4.8-2.94c-1.16-.68-2.37-1.28-3.5-2-3.5-2.29-7-4.56-10.45-7-2.07-1.47-4-3.19-5.94-4.79-3.91-3.15-7.83-6.29-11.72-9.47-.51-.41-.74-1.19-1.27-1.56a13.78,13.78,0,0,0-3.83-2.23c-3.89-1.06-6.84-3.71-10.22-5.62a34.17,34.17,0,0,0-4.44-2.14c-4.79-1.86-9.58-3.76-14.45-5.39a49.7,49.7,0,0,0-6.61-1.22,15.23,15.23,0,0,1-2.36-.71c-4-1.47-8.06-1.11-12.13-.65-4.41.49-8.8,1.18-13.22,1.55a16,16,0,0,1-5.07-.63c-1.66-.42-2.15-1.89-1.22-3.36,1.05-1.64,2.31-3.15,3.36-4.8s.92-2.08-1-2.7a25.79,25.79,0,0,0-13.88-.33c-2.41.56-4.47,2.54-6.74,3.77q-4,2.19-8.19,4.16a1.65,1.65,0,0,1-1.48-.61,2.15,2.15,0,0,1-.13-1.8c3.58-6.53,7.29-13,10.84-19.54,1.74-3.22,3.19-6.6,4.8-9.89a60.34,60.34,0,0,1,3.18-6.14c.56-.87,1.77-1.33,2.69-2l.43.34c-.29.79-.54,1.6-.89,2.36-1.73,3.75-3.4,7.54-5.27,11.22-1.42,2.78-3.21,5.38-4.68,8.15-1.74,3.28-3.31,6.65-5,10-.56,1.13-1.17,2.23-1.76,3.35l.34.36a22.45,22.45,0,0,0,3.73-2.17c5.46-4.79,12-4.93,18.63-4.35a22.82,22.82,0,0,1,6.7,2.16c2.18.94,2.33,1.91.9,3.85s-2.75,3.51-4.14,5.26Z" transform="translate(22.21 23.85)"/><path class="cls-2" d="M474.19,345.94c2.22-1.44,2.46-1.34,3.79.58a18.25,18.25,0,0,0,2.9,3.3c4.53,4,9.19,7.93,13.69,12a13.46,13.46,0,0,1,3.48,4.39c1.79,4.27,4.1,8.39,4.56,13.15.22,2.29.81,4.53,1.09,6.82.18,1.4.06,2.83.17,4.24.23,3.07.59,6.13.79,9.2a32.67,32.67,0,0,1-.9,11.78c-.86,2.82-1.88,5.59-2.93,8.34-.9,2.36-3.23,3.24-5.14,4.46-1,.63-1.44-.46-1.7-1.4-1.09-3.92-2.09-7.87-3.41-11.72a15.85,15.85,0,0,0-5.31-7.19,41.09,41.09,0,0,1-4.51-4,58.11,58.11,0,0,1-6.35-7.52c-1.86-2.86-1.54-6.33-1.43-9.64.08-2.18.15-4.37.11-6.54-.09-4.13-.63-8.29-.29-12.37.24-2.94,1.91-5.73,2.36-8.68.39-2.51,0-5.16-.15-7.74C475,346.89,474.48,346.42,474.19,345.94Zm3.41,3.44a6.1,6.1,0,0,0-.21,1.3,20.48,20.48,0,0,1-1.47,10.4,23.76,23.76,0,0,0-.88,13.64,8,8,0,0,1,.24,1.75c-.09,3.43-.35,6.86-.27,10.29a7.49,7.49,0,0,0,1.22,4.32,116.45,116.45,0,0,0,10,11c4.38,4.1,7.56,8.68,8.48,14.71a46.28,46.28,0,0,0,1.37,4.89,18.13,18.13,0,0,0,2.34-2.51,29,29,0,0,0,4-13.33c.21-4.06-.48-8.16-.47-12.24a65.44,65.44,0,0,0-4.52-23.93,16.36,16.36,0,0,0-4.89-7c-4.64-3.82-9-8-13.41-12.07C478.71,350.27,478.3,350,477.6,349.38Z" transform="translate(22.21 23.85)"/><path class="cls-2" d="M490.26,267.5c-1.15,2.7-.1,5.94-2.26,8.41a2.27,2.27,0,0,0-.34,1.18,8.36,8.36,0,0,1-3.17,5.38c-4,3.4-8.17,6.59-12.31,9.82-.42.32-1.13.27-1.7.4a6.18,6.18,0,0,1-.33-1.86c.68-5.38,1.6-10.75,2.07-16.15a17.46,17.46,0,0,0-1-6.26c-1.07-3.56-2.48-7-3.59-10.55-.48-1.54-.53-3.2-.87-4.78-.18-.9-.62-1.75-.77-2.66a4,4,0,0,1,.31-1.51c.48.2,1.23.27,1.39.62.91,2,2.5,2.54,4.48,2.6a4.3,4.3,0,0,1,1.71.37c4,2,8.06,4,12.08,5.94a5.55,5.55,0,0,1,3.31,4.12C489.54,264.19,489.91,265.81,490.26,267.5Zm-17.74,21.11.46.25c1.36-1,2.73-2,4.07-3s2.48-2,3.76-3c2.13-1.58,4-3.37,4.81-6,.7-2.25,1.33-4.53,1.89-6.82,1.26-5.18-.06-9.33-5.16-11.32-3.43-1.35-6.62-3.31-10-4.77-1.08-.46-2.47-.2-3.71-.27.28,1.18.48,2.38.84,3.53,1.38,4.4,3,8.72,4.18,13.18,1.41,5.54.2,11.06-.87,16.53C472.67,287.5,472.61,288.06,472.52,288.61Z" transform="translate(22.21 23.85)"/></svg>